<?xml version="1.0" encoding="UTF-8"?>
<svg width="28px" height="28px" viewBox="0 0 28 28" version="1.1" xmlns="http://www.w3.org/2000/svg" xmlns:xlink="http://www.w3.org/1999/xlink">
    <title>Organization / Status / checkmark--filled / 32</title>
    <g id="Junior-Ducks-Application" stroke="none" stroke-width="1" fill="none" fill-rule="evenodd">
        <g id="Application-03" transform="translate(-505.000000, -196.000000)">
            <g id="Group-10" transform="translate(376.000000, 157.000000)">
                <g id="Group-9" transform="translate(118.000000, 37.000000)">
                    <g id="Group-2" transform="translate(9.000000, 0.000000)">
                        <g id="Organization-/-Status-/-checkmark--filled-/-32" transform="translate(2.000000, 2.000000)">
                            <path d="M14,0 C6.2680135,0 0,6.2680135 0,14 C0,21.7319865 6.2680135,28 14,28 C21.7319865,28 28,21.7319865 28,14 C28,10.2869691 26.5250042,6.72601436 23.8994949,4.10050506 C21.2739856,1.47499577 17.7130309,0 14,0 Z M12,19.5908 L7,14.5908 L8.5906,13 L12,16.4092 L19.41,9 L21.0057,10.5859 L12,19.5908 Z" id="Fill" fill="#66CAC8"></path>
                            <polygon id="Inner-Fill" fill="#1B2129" points="12 19.591 7 14.591 8.591 13 12 16.409 19.41 9 21.005 10.585"></polygon>
                        </g>
                    </g>
                </g>
            </g>
        </g>
    </g>
</svg>